<?xml version="1.0" encoding="UTF-8" standalone="no"?>
<svg
   version="1.0"
   width="310"
   height="322"
   viewBox="0 0 232.5 241.5"
   preserveAspectRatio="xMidYMid meet"
   id="svg31"
   sodipodi:docname="2.svg"
   inkscape:version="1.1 (c68e22c387, 2021-05-23)"
   xmlns:inkscape="http://www.inkscape.org/namespaces/inkscape"
   xmlns:sodipodi="http://sodipodi.sourceforge.net/DTD/sodipodi-0.dtd"
   xmlns="http://www.w3.org/2000/svg"
   xmlns:svg="http://www.w3.org/2000/svg">
  <defs
     id="defs35" />
  <sodipodi:namedview
     id="namedview33"
     pagecolor="#ffffff"
     bordercolor="#666666"
     borderopacity="1.0"
     inkscape:pageshadow="2"
     inkscape:pageopacity="0.0"
     inkscape:pagecheckerboard="0"
     inkscape:document-units="px"
     showgrid="false"
     inkscape:showpageshadow="false"
     units="px"
     inkscape:zoom="0.79311236"
     inkscape:cx="348.62652"
     inkscape:cy="241.45381"
     inkscape:window-width="1366"
     inkscape:window-height="705"
     inkscape:window-x="-8"
     inkscape:window-y="-8"
     inkscape:window-maximized="1"
     inkscape:current-layer="svg31" />
  <metadata
     id="metadata9">
Created by potrace 1.10, written by Peter Selinger 2001-2011
</metadata>
  <g
     transform="matrix(0.02571153,0,0,-0.02586907,1.9438592,241.32236)"
     fill="#000000"
     stroke="none"
     id="g29"
     style="stroke-width:3.87745">
    <path
       d="m 5345,9205 c -55,-7 -125,-19 -155,-28 -156,-46 -192,-58 -269,-91 -141,-60 -331,-180 -506,-321 -139,-112 -315,-285 -315,-310 1,-22 224,-259 239,-253 5,2 60,51 123,109 308,288 554,431 873,505 137,33 390,27 510,-11 22,-7 67,-21 100,-30 85,-23 284,-123 390,-194 128,-86 204,-148 330,-267 60,-57 116,-104 125,-104 20,0 240,220 240,240 0,20 -74,91 -212,206 -173,144 -261,207 -423,302 -245,143 -467,222 -705,248 -146,16 -208,16 -345,-1 z"
       id="path11"
       style="fill:#330080;stroke-width:3.87745" />
    <path
       d="m 5343,8589 c -189,-39 -409,-151 -608,-308 -154,-121 -245,-204 -245,-223 0,-20 165,-198 184,-198 6,0 40,25 76,56 203,175 307,249 437,313 138,68 216,86 378,86 121,0 150,-4 210,-24 199,-68 389,-190 609,-393 23,-21 47,-38 55,-38 19,0 201,180 201,199 0,14 -169,160 -259,226 -317,230 -563,326 -833,324 -71,0 -147,-8 -205,-20 z"
       id="path13"
       style="fill:#330080;stroke-width:3.87745" />
    <path
       d="m 5414,8031 c -151,-24 -313,-116 -473,-266 -39,-37 -71,-75 -71,-84 0,-21 100,-121 121,-121 9,0 47,28 85,61 168,150 305,209 482,209 188,0 314,-55 496,-217 39,-34 76,-63 83,-63 17,0 103,101 103,121 0,25 -117,128 -229,203 -167,111 -286,154 -446,161 -55,2 -123,0 -151,-4 z"
       id="path15"
       style="fill:#330080;stroke-width:3.87745" />
    <path
       d="m 5445,7575 c -62,-31 -127,-100 -143,-152 -15,-51 -15,-134 0,-185 15,-50 79,-123 130,-149 57,-29 133,-35 199,-16 109,32 180,126 187,248 4,57 0,75 -23,120 -36,73 -60,97 -130,130 -77,37 -149,38 -220,4 z"
       id="path17"
       style="fill:#330080;stroke-width:3.87745" />
    <path
       d="m 5385,6655 c -93,-63 -246,-167 -340,-230 -93,-64 -280,-190 -415,-280 -135,-90 -336,-226 -447,-302 -112,-76 -256,-174 -320,-217 -65,-44 -129,-87 -143,-97 -14,-10 -54,-36 -90,-57 -107,-66 -100,-45 -105,-318 -8,-438 -9,-913 -3,-919 8,-8 54,16 132,68 34,23 141,94 239,157 98,63 314,205 480,314 346,228 533,351 595,390 24,15 53,26 65,24 51,-7 49,129 45,-2558 l -3,-2505 521,-3 521,-2 6,297 c 2,164 5,519 6,788 1,477 10,1199 16,1340 2,39 7,642 10,1340 4,699 11,1277 16,1286 15,29 45,28 98,-5 112,-68 288,-183 538,-348 144,-95 311,-204 370,-242 106,-67 142,-91 392,-255 70,-45 128,-78 133,-73 10,10 11,718 2,965 -7,173 -8,175 -55,202 -10,5 -43,27 -74,48 -30,20 -79,52 -107,71 -117,74 -655,429 -678,447 -14,10 -45,30 -70,45 -90,55 -452,290 -610,397 -311,211 -525,347 -547,347 -4,0 -84,-52 -178,-115 z"
       id="path19"
       style="fill:#d45500;stroke-width:3.87745" />
    <path
       d="m 55,3898 c -3,-7 -4,-861 -3,-1898 L 55,115 h 580 580 l 3,1884 c 1,1384 -1,1887 -9,1897 -16,20 -1147,21 -1154,2 z"
       id="path21"
       style="fill:#330080;stroke-width:3.87745" />
    <path
       d="m 1726,3894 c -3,-8 -6,-856 -6,-1884 0,-1674 2,-1870 15,-1884 14,-14 83,-15 567,-15 339,0 559,4 570,10 17,9 18,80 16,1897 l -3,1887 -576,3 c -520,2 -577,1 -583,-14 z"
       id="path23"
       style="fill:#330080;stroke-width:3.87745" />
    <path
       d="m 3367,3903 c -4,-3 -7,-856 -7,-1894 0,-1668 2,-1888 15,-1893 8,-3 264,-6 568,-6 430,0 557,3 570,12 16,12 17,126 15,1898 l -3,1885 -576,3 c -316,1 -579,-1 -582,-5 z"
       id="path25"
       style="fill:#330080;stroke-width:3.87745" />
    <path
       d="m 7751,3881 c -12,-8 -13,-156 -8,-1026 4,-670 3,-1024 -4,-1036 -21,-39 -25,-35 -135,126 -41,61 -100,146 -131,190 -31,44 -108,157 -172,250 -63,94 -135,199 -159,235 -25,36 -93,135 -151,220 -110,163 -235,344 -271,395 -12,17 -73,105 -136,198 -63,92 -119,167 -125,167 -10,0 -9,-900 1,-1470 l 5,-296 40,-52 c 22,-28 51,-67 65,-87 14,-20 39,-55 56,-78 170,-231 237,-322 279,-382 27,-38 62,-86 77,-105 27,-33 232,-310 278,-375 12,-16 73,-100 136,-185 64,-85 130,-175 148,-200 129,-176 181,-246 190,-252 6,-4 256,-7 556,-5 l 545,2 v 1885 1885 l -535,2 c -304,2 -541,-1 -549,-6 z"
       id="path27"
       style="fill:#330080;stroke-width:3.87745" />
  </g>
</svg>
