<?xml version="1.0" encoding="UTF-8"?>
<svg version="1.1" xmlns="http://www.w3.org/2000/svg" width="254" height="116">
<path d="M0 0 C1.73533997 -0.00855011 1.73533997 -0.00855011 3.5057373 -0.01727295 C5.9533599 -0.02670494 8.40099509 -0.03324976 10.84863281 -0.03710938 C14.55296681 -0.04676866 18.25673464 -0.07779107 21.9609375 -0.109375 C53.1780421 -0.25135902 53.1780421 -0.25135902 66.09375 9.203125 C66.72796875 9.65558594 67.3621875 10.10804687 68.015625 10.57421875 C77.61369242 18.07005459 82.73751456 28.68676424 84.625 40.5390625 C85.31246038 47.24180116 84.73609831 52.71085862 83.09375 59.203125 C79.30209926 59.2320587 75.51047673 59.24990101 71.71875 59.265625 C70.09839844 59.27819336 70.09839844 59.27819336 68.4453125 59.29101562 C67.4140625 59.29423828 66.3828125 59.29746094 65.3203125 59.30078125 C64.36721191 59.30601807 63.41411133 59.31125488 62.43212891 59.31665039 C60.09375 59.203125 60.09375 59.203125 58.09375 58.203125 C58.444375 57.089375 58.795 55.975625 59.15625 54.828125 C60.90392981 47.71167339 60.08709336 40.47230983 56.53125 34.02734375 C52.95077346 29.48364118 47.73948001 26.34191973 42.09375 25.203125 C40.37568258 25.09889196 38.65422944 25.04489668 36.93310547 25.02612305 C35.90458466 25.01328781 34.87606384 25.00045258 33.81637573 24.98722839 C32.70908112 24.97984146 31.6017865 24.97245453 30.4609375 24.96484375 C28.74041672 24.95273613 28.74041672 24.95273613 26.98513794 24.94038391 C24.55586248 24.92655508 22.1265677 24.91582756 19.69726562 24.90795898 C16.00352534 24.89078667 12.31068965 24.8468926 8.6171875 24.80273438 C6.25261072 24.79260331 3.88802636 24.7840885 1.5234375 24.77734375 C-0.11928635 24.75108162 -0.11928635 24.75108162 -1.79519653 24.72428894 C-9.43485842 24.74562714 -16.95633264 25.64612795 -22.84988403 30.95341492 C-28.01597975 36.55382573 -29.37442786 41.90021525 -29.22265625 49.41796875 C-28.46548837 56.08291567 -25.00245474 60.95628772 -19.90625 65.203125 C-15.05613898 68.44426777 -11.17088045 68.38707574 -5.55517578 68.26147461 C7.57561313 68.01323394 7.57561313 68.01323394 11.83984375 71.35546875 C13.46875 74.140625 13.46875 74.140625 14.75390625 77.12890625 C16.30415471 80.68589033 18.27914305 82.98789861 20.90625 85.828125 C21.65519531 86.64539063 22.40414062 87.46265625 23.17578125 88.3046875 C24.9563285 90.26415117 24.9563285 90.26415117 27.09375 91.203125 C27.09375 91.863125 27.09375 92.523125 27.09375 93.203125 C21.35039166 93.30302954 15.60755435 93.37507622 9.86352539 93.42285156 C7.91519341 93.44279651 5.96691994 93.46996257 4.01879883 93.50488281 C-11.54291235 93.77656352 -24.10363293 93.0346706 -36.90625 83.203125 C-37.7725 82.625625 -38.63875 82.048125 -39.53125 81.453125 C-48.14217091 73.29541046 -53.29425342 62.07707547 -54.109375 50.2578125 C-54.22021946 42.73886321 -53.46105134 36.28739946 -50.90625 29.203125 C-50.66261719 28.51863281 -50.41898438 27.83414063 -50.16796875 27.12890625 C-45.42222789 16.04051647 -35.4498029 7.69507796 -24.48828125 3.21484375 C-16.3591805 0.34174449 -8.55527703 0.03286537 0 0 Z " fill="#FFFFFF" transform="translate(77.90625,11.796875)"/>
<path d="M0 0 C5.3161319 -0.07501597 10.63194537 -0.12900455 15.94848633 -0.16479492 C17.75127541 -0.17973916 19.55402906 -0.20010204 21.35668945 -0.22631836 C37.92918062 -0.46103012 54.43785029 0.33994484 67.34375 12.2109375 C77.73038923 23.43046761 82.40574588 36.11164574 81.8828125 51.43359375 C80.36361763 64.34675016 74.2453233 74.0995289 65 83 C64.47019531 83.51304688 63.94039063 84.02609375 63.39453125 84.5546875 C49.90613806 95.71988701 30.75575056 93.73753436 14.45050049 93.57647705 C11.68372158 93.55784472 8.91753193 93.57264149 6.15076256 93.5875864 C2.7956801 93.60082515 -0.55899032 93.58240382 -3.9140625 93.56640625 C-5.74428452 93.57384605 -5.74428452 93.57384605 -7.61148071 93.58143616 C-21.43625217 93.39461171 -33.60521223 89.48899179 -44.02734375 80.19140625 C-54.07040651 69.62091787 -57.24563703 57.35855718 -57.16796875 43.26953125 C-57 40 -57 40 -56 35 C-47.42 35 -38.84 35 -30 35 C-30.66 36.98 -31.32 38.96 -32 41 C-33.11680007 48.9469142 -31.72098052 55.4659746 -27 62 C-22.30506569 66.46891996 -17.8562022 68.11403072 -11.4621582 68.17700195 C-10.32700272 68.18983719 -9.19184723 68.20267242 -8.02229309 68.21589661 C-6.18014473 68.22697701 -6.18014473 68.22697701 -4.30078125 68.23828125 C-3.03662888 68.246353 -1.7724765 68.25442474 -0.47001648 68.26274109 C2.20907251 68.27658355 4.88803841 68.28759881 7.56713867 68.29516602 C10.98225612 68.30619983 14.39671649 68.34056807 17.81160259 68.38033772 C21.08657548 68.41293661 24.36160837 68.41729466 27.63671875 68.42578125 C29.46368538 68.45204338 29.46368538 68.45204338 31.32756042 68.47883606 C39.89921862 68.45704736 45.42912112 67.41217315 51.8125 61.3125 C55.83494686 55.22136618 57.79321416 49.50121062 56.55859375 42.1953125 C54.68490159 34.8315713 51.65607126 31.17427766 45.21875 27.12890625 C41.48574288 25.22954171 38.41694412 24.90278486 34.26171875 25.10546875 C19.5700828 25.44505324 19.5700828 25.44505324 15.44921875 21.65234375 C13.875 18.625 13.875 18.625 12.55078125 15.36328125 C10.67862836 11.30302019 8.28589629 8.83576068 5.0625 5.8125 C3.36669289 4.21711754 1.67639614 2.61576698 0 1 C0 0.67 0 0.34 0 0 Z " fill="#FFFFFF" transform="translate(150,12)"/>
</svg>
